# xmcd CD database file
#
# Track frame offsets:
#	150
#	22718
#	44742
#	75128
#	99067
#	119422
#	146584
#	163609
#	188758
#	207543
#
# Disc length: 3060 seconds
#
# Revision: 4
# Processed by: cddbd v1.5.1PL0 Copyright (c) Steve Scherf et al.
# Submitted via: CDex 1.51
#
DISCID=770bf20a
DTITLE=ZVA 12 - 28 Band - Live in Stará Pekárna
DYEAR=2002
DGENRE=Blues
TTITLE0=Elektrické blues
TTITLE1=Blues prepoteného trièka
TTITLE2=Killing Floor (Howlin' Wolf)
TTITLE3=Stormy Monday Blues (T-Bone Walker)
TTITLE4=Ach, to je baba
TTITLE5=170 na 120
TTITLE6=My love for you (Buddy Guy)
TTITLE7=Bring it on home (Miller)
TTITLE8=Mellow down easy (Dixon)
TTITLE9=Got my Mojo workin' (Dixon)
EXTD=YEAR: 2002
EXTT0=
EXTT1=
EXTT2=
EXTT3=
EXTT4=
EXTT5=
EXTT6=
EXTT7=
EXTT8=
EXTT9=
PLAYORDER=
